<svg xmlns="http://www.w3.org/2000/svg" width="76" height="76" fill="none" viewBox="0 0 76 76"><path fill="#FFA000" d="M44.4494 29.6707L38.4437 35.2582L32.8712 24.0176L35.755 17.5526C36.505 16.2401 37.675 16.2551 38.4062 17.5526L44.4494 29.6707Z"/><path fill="#F57F17" d="M32.8712 24.0176L38.4437 35.2582L16 56.1363L32.8712 24.0176Z"/><path fill="#FFCA28" d="M51.0175 21.1301C52.09 20.0988 53.2 20.4513 53.4831 21.912L59.3256 55.8588L39.9606 67.4838C39.2856 67.8588 37.4856 68.0201 37.4856 68.0201C37.4856 68.0201 35.8469 67.8251 35.2225 67.4576L16 56.1363L51.0175 21.1301Z"/><path fill="#FFA000" d="M32.8713 24.0176L16.0019 56.1364L23.515 9.19575C23.7925 7.73326 24.625 7.59263 25.3675 8.88263L32.8713 24.0176Z"/></svg>